<svg xmlns="http://www.w3.org/2000/svg" version="1.1" xmlns:xlink="http://www.w3.org/1999/xlink" xmlns:svgjs="http://svgjs.dev/svgjs" width="2000" height="343" viewBox="0 0 2000 343"><g transform="matrix(1,0,0,1,-1.2121212121212466,-0.3682262289593723)"><svg viewBox="0 0 396 68" data-background-color="#ffffff" preserveAspectRatio="xMidYMid meet" height="343" width="2000" xmlns="http://www.w3.org/2000/svg" xmlns:xlink="http://www.w3.org/1999/xlink"><g id="tight-bounds" transform="matrix(1,0,0,1,0.2400000000000091,0.07300111827765932)"><svg viewBox="0 0 395.52 67.853961756753" height="67.853961756753" width="395.52"><g><svg viewBox="0 0 497.39902957026027 85.33195471861472" height="67.853961756753" width="395.52"><g transform="matrix(1,0,0,1,101.87902957026029,25.14293938462382)"><svg viewBox="0 0 395.52 35.046075949367086" height="35.046075949367086" width="395.52"><g id="textblocktransform"><svg viewBox="0 0 395.52 35.046075949367086" height="35.046075949367086" width="395.52" id="textblock"><g><svg viewBox="0 0 395.52 35.046075949367086" height="35.046075949367086" width="395.52"><g transform="matrix(1,0,0,1,0,0)"><svg width="395.52" viewBox="0 -50 493.73 43.75" height="35.046075949367086" data-palette-color="#2257bf"><g class="wordmark-text-0" data-fill-palette-color="primary" id="text-0"><path d="M43.75-6.25L12.5-6.25 12.5-12.5 6.25-12.5 6.25-18.75 0-18.75 0-37.5 6.25-37.5 6.25-43.75 12.5-43.75 12.5-50 43.75-50 43.75-43.75 18.75-43.75 18.75-37.5 12.5-37.5 12.5-18.75 18.75-18.75 18.75-12.5 31.25-12.5 31.25-25 25-25 25-31.25 43.75-31.25 43.75-6.25ZM93.75-6.25L56.25-6.25 56.25-12.5 50-12.5 50-18.75 56.25-18.75 56.25-25 81.25-25 81.25-31.25 56.25-31.25 56.25-37.5 87.5-37.5 87.5-31.25 93.75-31.25 93.75-6.25ZM62.5-18.75L62.5-12.5 81.25-12.5 81.25-18.75 62.5-18.75ZM106.25-6.25L100-6.25 100-37.5 137.5-37.5 137.5-31.25 143.75-31.25 143.75-6.25 131.25-6.25 131.25-31.25 125-31.25 125-6.25 112.5-6.25 112.5-31.25 106.25-31.25 106.25-6.25ZM187.49-6.25L156.24-6.25 156.24-12.5 149.99-12.5 149.99-31.25 156.24-31.25 156.24-37.5 187.49-37.5 187.49-31.25 193.74-31.25 193.74-18.75 162.49-18.75 162.49-12.5 187.49-12.5 187.49-6.25ZM162.49-31.25L162.49-25 181.24-25 181.24-31.25 162.49-31.25ZM243.74-6.25L212.49-6.25 212.49-12.5 206.24-12.5 206.24-18.75 199.99-18.75 199.99-37.5 206.24-37.5 206.24-43.75 212.49-43.75 212.49-50 243.74-50 243.74-43.75 218.74-43.75 218.74-37.5 212.49-37.5 212.49-18.75 218.74-18.75 218.74-12.5 231.24-12.5 231.24-25 224.99-25 224.99-31.25 243.74-31.25 243.74-6.25ZM293.74-6.25L256.24-6.25 256.24-12.5 268.74-12.5 268.74-43.75 262.49-43.75 262.49-50 281.24-50 281.24-12.5 293.74-12.5 293.74-6.25ZM343.74-6.25L306.24-6.25 306.24-12.5 299.99-12.5 299.99-18.75 306.24-18.75 306.24-25 331.24-25 331.24-31.25 306.24-31.25 306.24-37.5 337.49-37.5 337.49-31.25 343.74-31.25 343.74-6.25ZM312.49-18.75L312.49-12.5 331.24-12.5 331.24-18.75 312.49-18.75ZM362.48-6.25L349.98-6.25 349.98-37.5 387.48-37.5 387.48-31.25 393.73-31.25 393.73-6.25 381.23-6.25 381.23-31.25 362.48-31.25 362.48-6.25ZM443.73-6.25L406.23-6.25 406.23-12.5 399.98-12.5 399.98-31.25 406.23-31.25 406.23-37.5 443.73-37.5 443.73-31.25 412.48-31.25 412.48-12.5 443.73-12.5 443.73-6.25ZM487.48-6.25L456.23-6.25 456.23-12.5 449.98-12.5 449.98-31.25 456.23-31.25 456.23-37.5 487.48-37.5 487.48-31.25 493.73-31.25 493.73-18.75 462.48-18.75 462.48-12.5 487.48-12.5 487.48-6.25ZM462.48-31.25L462.48-25 481.23-25 481.23-31.25 462.48-31.25Z" fill="#ffffff" data-fill-palette-color="primary"></path></g></svg></g></svg></g></svg></g></svg></g><g><svg viewBox="0 0 85.33195471861472 85.33195471861472" height="85.33195471861472" width="85.33195471861472"><g><svg></svg></g><g id="icon-0"><svg viewBox="0 0 85.33195471861472 85.33195471861472" height="85.33195471861472" width="85.33195471861472"><g><path d="M0 42.666c0-23.564 19.102-42.666 42.666-42.666 23.564 0 42.666 19.102 42.666 42.666 0 23.564-19.102 42.666-42.666 42.666-23.564 0-42.666-19.102-42.666-42.666zM42.666 82.171c21.818 0 39.505-17.687 39.505-39.505 0-21.818-17.687-39.505-39.505-39.506-21.818 0-39.505 17.687-39.506 39.506 0 21.818 17.687 39.505 39.506 39.505z" data-fill-palette-color="accent" fill="#ffffff" stroke="transparent"></path></g><g transform="matrix(1,0,0,1,17.975254791014724,26.440526949972085)"><svg viewBox="0 0 49.38144513658528 32.450900818670554" height="32.450900818670554" width="49.38144513658528"><g><svg xmlns="http://www.w3.org/2000/svg" xmlns:xlink="http://www.w3.org/1999/xlink" version="1.1" viewBox="30.232999999999993 63.74485853455743 195.561 128.5124523481871" x="0" y="0" height="32.450900818670554" width="49.38144513658528" class="icon-cg-0" data-fill-palette-color="accent" id="cg-0"><path d="M200.755 110.874c0 3.959-3.209 7.168-7.168 7.168s-7.168-3.209-7.168-7.168c0-3.959 3.209-7.168 7.168-7.168s7.168 3.209 7.168 7.168z" fill="#ffffff" data-fill-palette-color="accent"></path><path d="M172.621 110.874c0 3.959-3.209 7.168-7.168 7.168s-7.168-3.209-7.168-7.168c0-3.959 3.209-7.168 7.168-7.168s7.168 3.209 7.168 7.168z" fill="#ffffff" data-fill-palette-color="accent"></path><path d="M186.982 123.879c0 3.959-3.209 7.168-7.168 7.168s-7.168-3.209-7.168-7.168c0-3.959 3.209-7.168 7.168-7.168s7.168 3.209 7.168 7.168z" fill="#ffffff" data-fill-palette-color="accent"></path><path d="M186.982 97.689c0 3.959-3.209 7.168-7.168 7.168s-7.168-3.209-7.168-7.168c0-3.959 3.209-7.168 7.168-7.168s7.168 3.209 7.168 7.168z" fill="#ffffff" data-fill-palette-color="accent"></path><path d="M224.102 124.903c-1.255-15.053-2.381-20.608-3.174-26.547-1.357-9.984-5.095-18.611-11.187-24.832-6.067-6.246-14.515-9.805-24.064-9.779-10.087 0-19.2 4.301-25.625 11.085h-64.103c-6.425-6.809-15.539-11.085-25.626-11.085-9.549-0.026-17.997 3.533-24.064 9.779-6.093 6.221-9.831 14.848-11.187 24.832-0.819 5.939-1.946 11.495-3.175 26.547-0.845 10.189-1.664 19.789-1.664 28.493 0 4.839 0.256 9.369 0.947 13.619 1.024 6.323 3.046 12.109 7.015 16.691 1.971 2.279 4.403 4.173 7.245 5.581s6.041 2.329 9.575 2.765c1.101 0.128 2.176 0.205 3.251 0.205 4.787 0.025 9.267-1.459 13.005-4.019 5.657-3.84 9.805-9.702 13.363-16.717 3.046-6.067 5.632-13.107 8.064-20.71h70.605c3.353 10.573 7.04 19.968 11.853 27.315 2.688 4.096 5.811 7.577 9.575 10.112 3.738 2.535 8.218 4.019 13.005 4.019 1.075 0 2.15-0.077 3.251-0.205 4.71-0.589 8.857-2.023 12.288-4.352 2.56-1.715 4.71-3.917 6.375-6.4 2.509-3.738 4.019-8.064 4.915-12.749s1.229-9.754 1.229-15.207c-0.025-8.653-0.845-18.279-1.69-28.442zM214.707 165.351c-0.845 5.248-2.406 9.088-4.633 11.623-1.126 1.28-2.406 2.304-4.071 3.149-1.664 0.819-3.712 1.459-6.298 1.792-0.691 0.077-1.331 0.128-1.946 0.128-2.765-0.025-5.018-0.743-7.296-2.279-3.405-2.253-6.835-6.656-9.933-12.826-3.097-6.144-5.913-13.977-8.55-22.733l-1.101-3.635h-85.734l-1.101 3.635c-3.533 11.673-7.373 21.683-11.751 28.288-2.176 3.303-4.454 5.734-6.733 7.27-2.304 1.511-4.531 2.253-7.296 2.279-0.614 0-1.28-0.051-1.946-0.128-3.456-0.435-5.939-1.408-7.859-2.688-1.434-0.973-2.586-2.15-3.584-3.635-1.485-2.227-2.637-5.197-3.353-8.96s-1.05-8.243-1.024-13.261c0-8.038 0.794-17.459 1.639-27.648 1.229-14.823 2.253-19.635 3.123-26.01 1.127-8.32 4.147-14.771 8.371-19.072 4.224-4.275 9.626-6.656 16.742-6.681 7.834 0 14.797 3.584 19.405 9.216l1.536 1.869h73.446l1.536-1.869c4.608-5.632 11.571-9.216 19.405-9.216 7.117 0.025 12.518 2.406 16.743 6.681 4.198 4.301 7.219 10.752 8.371 19.072 0.87 6.374 1.894 11.187 3.123 26.01 0.845 10.189 1.638 19.584 1.638 27.648-0.051 4.48-0.281 8.499-0.87 11.981z" fill="#ffffff" data-fill-palette-color="accent"></path><path d="M59.673 95.667c-3.021 3.558-4.839 8.141-4.839 13.159 0 5.35 2.074 10.189 5.453 13.824l13.184-13.184-13.799-13.799z" fill="#ffffff" data-fill-palette-color="accent"></path><path d="M62.694 124.851c3.456 2.688 7.757 4.301 12.467 4.301 5.017 0 9.6-1.817 13.159-4.838l-12.544-12.544-13.081 13.082z" fill="#ffffff" data-fill-palette-color="accent"></path><path d="M88.986 93.927c-3.635-3.379-8.474-5.453-13.824-5.453-5.017 0-9.6 1.817-13.159 4.838l13.773 13.799 13.21-13.184z" fill="#ffffff" data-fill-palette-color="accent"></path><path d="M78.106 109.44l12.544 12.544c3.021-3.558 4.838-8.141 4.838-13.159 0-4.71-1.613-9.011-4.301-12.467l-13.082 13.082z" fill="#ffffff" data-fill-palette-color="accent"></path></svg></g></svg></g></svg></g></svg></g></svg></g><defs></defs></svg><rect width="395.52" height="67.853961756753" fill="none" stroke="none" visibility="hidden"></rect></g></svg></g></svg>