<svg id="svg" version="1.1" xmlns="http://www.w3.org/2000/svg" xmlns:xlink="http://www.w3.org/1999/xlink" width="400" height="72.40143369175628" viewBox="0, 0, 400,72.40143369175628"><g id="svgg"><path id="path0" d="M310.040 5.875 L 310.083 11.750 317.208 11.793 L 324.333 11.837 324.333 5.918 L 324.333 0.000 317.165 -0.000 L 309.996 -0.000 310.040 5.875 M93.795 4.333 C 93.623 4.608,93.406 4.667,92.563 4.667 C 91.691 4.667,91.526 4.714,91.455 4.989 C 91.393 5.224,91.196 5.325,90.727 5.364 C 90.206 5.407,90.073 5.488,90.030 5.792 C 89.985 6.107,89.874 6.167,89.333 6.167 C 88.836 6.167,88.665 6.242,88.583 6.500 C 88.525 6.683,88.333 6.833,88.155 6.833 C 87.944 6.833,87.833 6.948,87.833 7.167 C 87.833 7.389,87.722 7.500,87.500 7.500 C 87.276 7.500,87.167 7.611,87.167 7.837 C 87.167 8.044,87.005 8.236,86.750 8.333 C 86.521 8.420,86.333 8.588,86.333 8.706 C 86.333 8.824,86.183 9.013,86.000 9.128 C 85.792 9.258,85.667 9.517,85.667 9.815 C 85.667 10.154,85.569 10.320,85.333 10.382 C 85.068 10.451,85.000 10.609,85.000 11.151 C 85.000 11.707,84.942 11.833,84.688 11.833 C 84.354 11.833,84.167 12.402,84.167 13.418 C 84.167 13.821,84.081 13.984,83.833 14.048 C 83.521 14.130,83.500 14.276,83.500 16.375 C 83.500 18.403,83.468 18.644,83.167 18.917 C 82.881 19.175,82.833 19.430,82.833 20.691 C 82.833 21.983,82.874 22.189,83.167 22.372 C 83.469 22.561,83.500 22.761,83.500 24.539 C 83.500 26.317,83.531 26.516,83.833 26.705 C 84.067 26.851,84.167 27.094,84.167 27.516 C 84.167 27.927,84.299 28.260,84.583 28.568 C 84.813 28.815,85.000 29.163,85.000 29.342 C 85.000 29.521,85.150 29.817,85.333 30.000 C 85.517 30.183,85.667 30.521,85.667 30.750 C 85.667 31.047,85.757 31.167,85.981 31.167 C 86.211 31.167,86.327 31.329,86.409 31.768 C 86.483 32.164,86.632 32.399,86.844 32.455 C 87.026 32.502,87.167 32.683,87.167 32.868 C 87.167 33.058,87.308 33.235,87.500 33.285 C 87.684 33.333,87.833 33.512,87.833 33.686 C 87.833 33.889,87.951 34.000,88.167 34.000 C 88.389 34.000,88.500 34.111,88.500 34.333 C 88.500 34.578,88.611 34.667,88.917 34.667 C 89.250 34.667,89.333 34.750,89.333 35.083 C 89.333 35.389,89.422 35.500,89.667 35.500 C 89.889 35.500,90.000 35.611,90.000 35.833 C 90.000 36.056,90.111 36.167,90.333 36.167 C 90.556 36.167,90.667 36.278,90.667 36.500 C 90.667 36.718,90.778 36.833,90.989 36.833 C 91.166 36.833,91.357 36.979,91.414 37.158 C 91.471 37.337,91.663 37.529,91.842 37.586 C 92.021 37.643,92.167 37.804,92.167 37.944 C 92.167 38.083,92.317 38.237,92.500 38.285 C 92.683 38.333,92.833 38.483,92.833 38.618 C 92.833 38.754,92.981 38.903,93.161 38.950 C 93.341 38.997,93.534 39.178,93.589 39.351 C 93.644 39.525,93.834 39.667,94.011 39.667 C 94.218 39.667,94.333 39.782,94.333 39.989 C 94.333 40.166,94.483 40.358,94.667 40.417 C 94.850 40.475,95.000 40.632,95.000 40.765 C 95.000 40.899,95.188 41.080,95.417 41.167 C 95.646 41.254,95.833 41.439,95.833 41.579 C 95.833 41.722,95.979 41.833,96.167 41.833 C 96.389 41.833,96.500 41.944,96.500 42.167 C 96.500 42.389,96.611 42.500,96.833 42.500 C 97.052 42.500,97.167 42.611,97.167 42.822 C 97.167 42.999,97.317 43.192,97.500 43.250 C 97.683 43.308,97.833 43.470,97.833 43.610 C 97.833 43.750,97.981 43.903,98.161 43.950 C 98.341 43.997,98.531 44.170,98.583 44.333 C 98.635 44.497,98.825 44.669,99.006 44.716 C 99.200 44.767,99.333 44.944,99.333 45.151 C 99.333 45.389,99.439 45.500,99.667 45.500 C 99.944 45.500,100.000 45.611,100.000 46.167 C 100.000 46.722,100.056 46.833,100.333 46.833 C 100.614 46.833,100.667 46.945,100.669 47.542 C 100.672 48.571,100.824 49.000,101.186 49.000 C 101.482 49.000,101.500 49.171,101.500 51.917 C 101.500 54.667,101.482 54.833,101.185 54.833 C 100.987 54.833,100.830 54.989,100.765 55.250 C 100.707 55.479,100.549 55.667,100.413 55.667 C 100.278 55.667,100.167 55.779,100.167 55.917 C 100.167 56.106,99.963 56.167,99.333 56.167 C 98.721 56.167,98.500 56.103,98.500 55.928 C 98.500 55.797,98.358 55.644,98.185 55.589 C 98.011 55.534,97.831 55.341,97.784 55.161 C 97.736 54.981,97.579 54.833,97.435 54.833 C 97.201 54.833,97.166 54.227,97.127 49.458 L 97.083 44.083 90.333 44.037 C 86.621 44.011,83.415 44.032,83.208 44.082 L 82.833 44.173 82.833 48.314 C 82.833 52.203,82.854 52.481,83.167 52.879 C 83.466 53.259,83.500 53.555,83.500 55.750 C 83.500 58.011,83.524 58.204,83.815 58.280 C 84.079 58.349,84.142 58.557,84.197 59.541 C 84.253 60.529,84.323 60.758,84.632 60.963 C 84.909 61.147,85.000 61.371,85.000 61.869 C 85.000 62.391,85.071 62.550,85.333 62.618 C 85.517 62.666,85.667 62.829,85.667 62.979 C 85.667 63.130,85.811 63.344,85.988 63.454 C 86.165 63.565,86.334 63.864,86.363 64.119 C 86.397 64.408,86.558 64.645,86.792 64.748 C 86.998 64.838,87.167 65.045,87.167 65.206 C 87.167 65.389,87.293 65.500,87.500 65.500 C 87.722 65.500,87.833 65.611,87.833 65.833 C 87.833 66.067,87.945 66.168,88.208 66.170 C 88.415 66.171,88.760 66.359,88.976 66.586 C 89.192 66.814,89.502 67.000,89.665 67.000 C 89.828 67.000,90.000 67.150,90.048 67.333 C 90.116 67.594,90.276 67.667,90.778 67.667 C 91.239 67.667,91.478 67.760,91.628 68.000 C 91.806 68.285,92.017 68.333,93.085 68.333 C 94.194 68.333,94.333 68.368,94.333 68.646 C 94.333 69.114,94.888 69.167,99.813 69.164 C 104.618 69.162,105.000 69.124,105.000 68.647 C 105.000 68.372,105.133 68.333,106.083 68.333 C 107.056 68.333,107.167 68.299,107.167 68.000 C 107.167 67.721,107.278 67.667,107.849 67.667 C 108.391 67.667,108.549 67.598,108.618 67.333 C 108.668 67.144,108.846 67.000,109.030 67.000 C 109.498 67.000,110.000 66.695,110.000 66.411 C 110.000 66.277,110.150 66.167,110.333 66.167 C 110.552 66.167,110.667 66.056,110.667 65.845 C 110.667 65.639,110.801 65.504,111.040 65.470 C 111.245 65.441,111.440 65.279,111.472 65.110 C 111.504 64.941,111.673 64.660,111.848 64.485 C 112.023 64.310,112.167 63.979,112.167 63.750 C 112.167 63.444,112.256 63.333,112.500 63.333 C 112.774 63.333,112.833 63.222,112.833 62.706 C 112.833 62.216,112.915 62.043,113.208 61.915 C 113.519 61.778,113.592 61.597,113.634 60.857 C 113.675 60.137,113.748 59.947,114.009 59.879 C 114.288 59.806,114.333 59.644,114.333 58.731 C 114.333 57.889,114.403 57.597,114.667 57.333 C 114.989 57.011,115.000 56.778,115.000 50.167 C 115.000 43.444,114.995 43.333,114.667 43.333 C 114.368 43.333,114.333 43.222,114.333 42.250 C 114.333 41.278,114.299 41.167,114.000 41.167 C 113.731 41.167,113.667 41.056,113.667 40.594 C 113.667 39.826,113.399 39.167,113.087 39.167 C 112.928 39.167,112.833 39.012,112.833 38.750 C 112.833 38.444,112.744 38.333,112.500 38.333 C 112.221 38.333,112.167 38.222,112.167 37.651 C 112.167 37.109,112.098 36.951,111.833 36.882 C 111.649 36.833,111.500 36.654,111.500 36.481 C 111.500 36.257,111.380 36.167,111.083 36.167 C 110.778 36.167,110.667 36.078,110.667 35.833 C 110.667 35.611,110.556 35.500,110.333 35.500 C 110.062 35.500,110.000 35.389,110.000 34.901 C 110.000 34.451,109.921 34.281,109.681 34.219 C 109.505 34.173,109.316 33.955,109.261 33.734 C 109.197 33.480,109.040 33.333,108.830 33.333 C 108.611 33.333,108.500 33.221,108.500 33.000 C 108.500 32.778,108.389 32.667,108.167 32.667 C 107.948 32.667,107.833 32.556,107.833 32.345 C 107.833 32.167,107.683 31.975,107.500 31.917 C 107.317 31.858,107.167 31.702,107.167 31.568 C 107.167 31.434,106.979 31.254,106.750 31.167 C 106.521 31.080,106.333 30.894,106.333 30.754 C 106.333 30.611,106.188 30.500,106.000 30.500 C 105.778 30.500,105.667 30.389,105.667 30.167 C 105.667 29.948,105.556 29.833,105.345 29.833 C 105.167 29.833,104.975 29.683,104.917 29.500 C 104.858 29.317,104.740 29.167,104.654 29.167 C 104.568 29.167,104.335 28.979,104.136 28.750 C 103.936 28.521,103.708 28.333,103.629 28.333 C 103.549 28.333,103.319 28.159,103.117 27.946 C 102.915 27.733,102.619 27.510,102.458 27.451 C 102.298 27.392,102.167 27.229,102.167 27.089 C 102.167 26.948,102.025 26.833,101.853 26.833 C 101.679 26.833,101.500 26.684,101.452 26.500 C 101.400 26.301,101.224 26.167,101.016 26.167 C 100.778 26.167,100.667 26.061,100.667 25.833 C 100.667 25.611,100.556 25.500,100.333 25.500 C 100.089 25.500,100.000 25.389,100.000 25.083 C 100.000 24.778,99.911 24.667,99.667 24.667 C 99.459 24.667,99.333 24.556,99.333 24.373 C 99.333 24.211,99.165 24.005,98.958 23.915 C 98.752 23.824,98.559 23.578,98.529 23.369 C 98.499 23.159,98.331 22.897,98.154 22.787 C 97.978 22.677,97.833 22.417,97.833 22.210 C 97.833 21.944,97.735 21.833,97.500 21.833 C 97.224 21.833,97.167 21.722,97.167 21.184 C 97.167 20.709,97.055 20.430,96.753 20.142 C 96.152 19.573,96.151 18.415,96.750 18.265 C 97.019 18.197,97.167 18.043,97.167 17.830 C 97.167 17.611,97.279 17.500,97.500 17.500 C 97.722 17.500,97.833 17.389,97.833 17.167 C 97.833 16.672,99.252 16.672,99.382 17.167 C 99.434 17.366,99.609 17.500,99.818 17.500 C 100.011 17.500,100.167 17.608,100.167 17.742 C 100.167 17.875,100.277 18.045,100.412 18.121 C 100.611 18.232,100.667 18.802,100.704 21.088 L 100.750 23.917 107.875 23.960 L 115.000 24.004 115.000 21.168 C 115.000 18.486,114.983 18.333,114.681 18.333 C 114.387 18.333,114.357 18.174,114.306 16.321 C 114.258 14.615,114.206 14.285,113.958 14.146 C 113.763 14.037,113.666 13.779,113.664 13.367 C 113.661 12.465,113.505 12.024,113.149 11.911 C 112.912 11.836,112.833 11.652,112.833 11.175 C 112.833 10.679,112.760 10.520,112.500 10.452 C 112.314 10.403,112.167 10.224,112.167 10.047 C 112.167 9.872,112.017 9.569,111.833 9.372 C 111.650 9.175,111.500 8.896,111.500 8.753 C 111.500 8.609,111.313 8.420,111.083 8.333 C 110.828 8.236,110.667 8.044,110.667 7.837 C 110.667 7.611,110.557 7.500,110.333 7.500 C 110.111 7.500,110.000 7.389,110.000 7.167 C 110.000 6.927,109.889 6.833,109.603 6.833 C 109.346 6.833,109.175 6.716,109.118 6.500 C 109.052 6.246,108.891 6.167,108.444 6.167 C 107.962 6.167,107.847 6.100,107.803 5.792 C 107.759 5.480,107.631 5.408,107.042 5.365 C 106.590 5.333,106.333 5.234,106.333 5.093 C 106.333 4.799,105.800 4.672,104.561 4.669 C 103.680 4.667,103.527 4.621,103.452 4.333 C 103.316 3.813,94.120 3.813,93.795 4.333 M120.101 4.930 C 120.046 5.075,120.000 7.663,120.000 10.680 L 120.000 16.167 118.250 16.167 L 116.500 16.167 116.500 21.500 L 116.500 26.833 118.250 26.833 L 120.000 26.833 120.000 44.310 C 120.000 62.736,120.016 63.333,120.523 63.333 C 120.794 63.333,120.833 63.471,120.833 64.417 C 120.833 65.389,120.868 65.500,121.167 65.500 C 121.443 65.500,121.500 65.611,121.500 66.155 C 121.500 66.652,121.576 66.835,121.815 66.911 C 121.989 66.966,122.169 67.159,122.216 67.339 C 122.264 67.519,122.441 67.667,122.611 67.667 C 122.781 67.667,123.013 67.817,123.128 68.000 C 123.295 68.268,123.517 68.333,124.251 68.333 C 125.037 68.333,125.167 68.378,125.167 68.647 C 125.167 69.121,125.555 69.162,130.083 69.162 C 134.584 69.162,134.938 69.126,135.089 68.649 C 135.174 68.382,135.356 68.333,136.264 68.333 L 137.338 68.333 137.294 63.375 L 137.250 58.417 135.792 58.369 L 134.333 58.320 134.333 57.660 C 134.333 57.111,134.277 57.000,134.000 57.000 C 133.669 57.000,133.667 56.889,133.667 41.917 L 133.667 26.833 135.500 26.833 L 137.333 26.833 137.333 21.500 L 137.333 16.167 135.500 16.167 L 133.667 16.167 133.667 10.417 L 133.667 4.667 126.934 4.667 C 120.949 4.667,120.191 4.696,120.101 4.930 M292.167 36.500 L 292.167 68.333 299.333 68.333 L 306.500 68.333 306.500 36.500 L 306.500 4.667 299.333 4.667 L 292.167 4.667 292.167 36.500 M159.045 13.667 C 158.850 13.893,158.553 14.000,158.114 14.000 C 157.609 14.000,157.450 14.072,157.382 14.333 C 157.333 14.518,157.154 14.667,156.981 14.667 C 156.778 14.667,156.667 14.785,156.667 15.000 C 156.667 15.214,156.556 15.333,156.356 15.333 C 155.954 15.333,155.167 16.121,155.167 16.523 C 155.167 16.722,155.047 16.833,154.833 16.833 C 154.526 16.833,154.500 16.722,154.500 15.417 L 154.500 14.000 147.333 14.000 L 140.167 14.000 140.167 41.167 L 140.167 68.333 147.333 68.333 L 154.500 68.333 154.500 47.917 C 154.500 25.292,154.427 26.833,155.500 26.833 C 155.722 26.833,155.833 26.722,155.833 26.500 C 155.833 26.202,155.945 26.166,156.875 26.164 C 158.144 26.162,158.667 26.035,158.667 25.731 C 158.667 25.548,159.047 25.500,160.477 25.500 C 161.472 25.500,162.635 25.452,163.060 25.394 L 163.833 25.288 163.833 19.311 L 163.833 13.333 161.582 13.333 C 159.536 13.333,159.304 13.364,159.045 13.667 M176.750 13.667 C 176.659 13.954,176.498 14.000,175.586 14.000 C 174.378 14.000,174.000 14.104,174.000 14.434 C 174.000 14.599,173.780 14.667,173.250 14.667 C 172.628 14.667,172.500 14.720,172.500 14.979 C 172.500 15.215,172.334 15.317,171.817 15.400 C 171.331 15.478,171.108 15.605,171.047 15.838 C 171.000 16.019,170.820 16.167,170.647 16.167 C 170.444 16.167,170.333 16.285,170.333 16.500 C 170.333 16.744,170.222 16.833,169.917 16.833 C 169.611 16.833,169.500 16.922,169.500 17.167 C 169.500 17.389,169.389 17.500,169.167 17.500 C 168.922 17.500,168.833 17.611,168.833 17.917 C 168.833 18.222,168.744 18.333,168.500 18.333 C 168.282 18.333,168.167 18.444,168.167 18.655 C 168.167 18.862,168.033 18.996,167.792 19.030 C 167.480 19.074,167.408 19.203,167.365 19.792 C 167.324 20.364,167.252 20.500,166.990 20.500 C 166.724 20.500,166.667 20.618,166.667 21.167 C 166.667 21.722,166.611 21.833,166.333 21.833 C 166.035 21.833,166.000 21.944,166.000 22.897 C 166.000 23.792,165.951 23.974,165.692 24.042 C 165.181 24.175,165.167 24.630,165.169 40.313 C 165.170 56.118,165.188 56.660,165.692 56.792 C 165.961 56.862,166.000 57.051,166.000 58.285 C 166.000 59.558,166.033 59.707,166.333 59.785 C 166.601 59.855,166.667 60.012,166.667 60.589 C 166.667 61.448,166.795 61.833,167.080 61.833 C 167.198 61.833,167.339 62.134,167.400 62.517 C 167.478 63.002,167.605 63.225,167.838 63.286 C 168.025 63.335,168.167 63.514,168.167 63.702 C 168.167 63.891,168.308 64.068,168.500 64.118 C 168.684 64.167,168.833 64.346,168.833 64.519 C 168.833 64.722,168.951 64.833,169.167 64.833 C 169.389 64.833,169.500 64.944,169.500 65.167 C 169.500 65.411,169.611 65.500,169.917 65.500 C 170.222 65.500,170.333 65.589,170.333 65.833 C 170.333 66.056,170.444 66.167,170.667 66.167 C 170.911 66.167,171.000 66.278,171.000 66.583 C 171.000 66.889,171.089 67.000,171.333 67.000 C 171.517 67.000,171.817 67.150,172.000 67.333 C 172.183 67.517,172.521 67.667,172.750 67.667 C 172.979 67.667,173.317 67.817,173.500 68.000 C 173.765 68.265,174.056 68.333,174.917 68.333 C 175.881 68.333,176.000 68.369,176.000 68.659 C 176.000 69.143,176.523 69.186,181.833 69.132 L 186.583 69.083 186.637 68.708 C 186.687 68.354,186.765 68.333,188.075 68.333 C 189.321 68.333,189.470 68.300,189.548 68.000 C 189.618 67.735,189.776 67.667,190.318 67.667 C 190.882 67.667,191.000 67.611,191.000 67.343 C 191.000 67.090,191.135 67.009,191.625 66.968 C 192.084 66.930,192.294 66.817,192.415 66.542 C 192.505 66.335,192.711 66.167,192.873 66.167 C 193.056 66.167,193.167 66.041,193.167 65.833 C 193.167 65.611,193.278 65.500,193.500 65.500 C 193.718 65.500,193.833 65.389,193.833 65.178 C 193.833 64.971,193.967 64.837,194.208 64.803 C 194.449 64.769,194.602 64.616,194.637 64.375 C 194.671 64.134,194.805 64.000,195.012 64.000 C 195.276 64.000,195.333 63.881,195.333 63.333 C 195.333 62.778,195.389 62.667,195.667 62.667 C 195.950 62.667,196.000 62.556,196.000 61.928 C 196.000 61.289,196.051 61.183,196.375 61.137 C 196.711 61.089,196.755 60.977,196.799 60.059 C 196.840 59.206,196.903 59.021,197.174 58.950 C 197.476 58.871,197.500 58.708,197.500 56.785 C 197.500 54.846,197.522 54.700,197.833 54.618 C 198.294 54.498,198.361 47.110,197.903 46.934 C 197.559 46.802,184.441 46.802,184.097 46.934 C 183.866 47.023,183.833 47.584,183.833 51.512 C 183.833 55.818,183.821 55.995,183.500 56.167 C 183.253 56.299,183.167 56.516,183.167 57.006 L 183.167 57.667 181.771 57.667 L 180.376 57.667 180.272 57.020 C 180.200 56.564,180.070 56.347,179.835 56.285 C 179.507 56.200,179.500 56.065,179.500 49.770 L 179.500 43.342 188.673 43.296 C 196.611 43.256,197.867 43.216,198.004 43.000 C 198.368 42.423,198.204 25.500,197.833 25.500 C 197.522 25.500,197.500 25.389,197.500 23.835 C 197.500 22.350,197.464 22.147,197.167 21.961 C 196.929 21.813,196.833 21.573,196.833 21.127 C 196.833 20.569,196.787 20.500,196.417 20.500 C 196.034 20.500,196.000 20.439,196.000 19.750 C 196.000 19.111,195.951 19.000,195.667 19.000 C 195.447 19.000,195.333 18.889,195.333 18.675 C 195.333 18.497,195.146 18.148,194.917 17.901 C 194.688 17.654,194.500 17.350,194.500 17.226 C 194.500 17.102,194.429 17.000,194.342 17.000 C 194.255 17.000,193.982 16.813,193.734 16.583 C 193.487 16.354,193.113 16.167,192.904 16.167 C 192.637 16.167,192.507 16.056,192.470 15.793 C 192.439 15.578,192.276 15.393,192.084 15.357 C 191.901 15.322,191.572 15.152,191.353 14.980 C 191.124 14.800,190.689 14.667,190.330 14.667 C 189.846 14.667,189.686 14.592,189.618 14.333 C 189.542 14.043,189.391 14.000,188.432 14.000 C 187.604 14.000,187.333 13.943,187.333 13.768 C 187.333 13.171,176.939 13.072,176.750 13.667 M211.833 13.667 C 211.833 13.974,211.722 14.000,210.417 14.000 C 209.111 14.000,209.000 14.026,209.000 14.333 C 209.000 14.626,208.889 14.667,208.085 14.667 C 207.350 14.667,207.128 14.732,206.961 15.000 C 206.847 15.183,206.621 15.333,206.460 15.333 C 206.299 15.333,206.167 15.414,206.167 15.512 C 206.167 15.834,205.699 16.167,205.246 16.167 C 204.949 16.167,204.775 16.272,204.719 16.485 C 204.673 16.659,204.493 16.840,204.318 16.886 C 204.140 16.932,204.000 17.114,204.000 17.298 C 204.000 17.484,203.859 17.665,203.678 17.712 C 203.466 17.768,203.317 18.002,203.242 18.398 C 203.160 18.837,203.044 19.000,202.815 19.000 C 202.553 19.000,202.500 19.126,202.500 19.750 C 202.500 20.389,202.451 20.500,202.167 20.500 C 201.864 20.500,201.833 20.611,201.833 21.689 C 201.833 22.714,201.782 22.922,201.458 23.203 C 201.060 23.548,200.796 28.560,201.077 30.435 L 201.187 31.167 207.927 31.167 L 214.667 31.167 214.667 28.651 C 214.667 26.276,214.685 26.131,215.000 26.048 C 215.261 25.980,215.333 25.821,215.333 25.314 C 215.333 24.672,215.339 24.667,215.986 24.667 C 216.352 24.667,216.676 24.575,216.723 24.458 C 216.790 24.292,216.810 24.292,216.820 24.458 C 216.827 24.573,217.021 24.667,217.250 24.667 C 217.851 24.667,218.333 25.222,218.333 25.915 C 218.333 26.317,218.437 26.562,218.667 26.705 C 218.979 26.900,219.000 27.094,219.000 29.790 C 219.000 32.556,218.987 32.667,218.667 32.667 C 218.444 32.667,218.333 32.778,218.333 33.000 C 218.333 33.299,218.222 33.333,217.250 33.333 C 216.278 33.333,216.167 33.368,216.167 33.667 C 216.167 33.964,216.056 34.000,215.151 34.000 C 214.276 34.000,214.123 34.046,214.048 34.333 C 213.989 34.560,213.820 34.667,213.522 34.669 C 212.482 34.673,211.833 34.873,211.833 35.188 C 211.833 35.455,211.701 35.500,210.923 35.500 C 210.182 35.500,209.978 35.562,209.833 35.833 C 209.701 36.081,209.484 36.167,208.994 36.167 C 208.451 36.167,208.333 36.224,208.333 36.490 C 208.333 36.752,208.198 36.824,207.625 36.865 C 207.036 36.908,206.908 36.980,206.863 37.292 C 206.818 37.608,206.708 37.667,206.155 37.667 C 205.611 37.667,205.500 37.723,205.500 38.000 C 205.500 38.244,205.389 38.333,205.083 38.333 C 204.778 38.333,204.667 38.422,204.667 38.667 C 204.667 38.889,204.556 39.000,204.333 39.000 C 204.089 39.000,204.000 39.111,204.000 39.417 C 204.000 39.728,203.912 39.833,203.651 39.833 C 203.448 39.833,203.267 39.966,203.219 40.151 C 203.173 40.326,202.993 40.507,202.818 40.552 C 202.582 40.614,202.500 40.785,202.500 41.215 C 202.500 41.654,202.419 41.816,202.167 41.882 C 201.902 41.951,201.833 42.109,201.833 42.651 C 201.833 43.206,201.775 43.333,201.522 43.333 C 201.205 43.333,201.006 43.983,201.002 45.033 C 201.001 45.287,200.873 45.555,200.708 45.647 C 200.217 45.922,200.171 59.396,200.661 59.702 C 200.920 59.863,201.000 60.091,201.002 60.665 C 201.005 62.005,201.177 62.667,201.522 62.667 C 201.775 62.667,201.833 62.794,201.833 63.349 C 201.833 63.891,201.902 64.049,202.167 64.118 C 202.428 64.187,202.500 64.346,202.500 64.853 C 202.500 65.389,202.557 65.500,202.833 65.500 C 203.056 65.500,203.167 65.611,203.167 65.833 C 203.167 66.078,203.278 66.167,203.583 66.167 C 203.917 66.167,204.000 66.250,204.000 66.583 C 204.000 66.889,204.089 67.000,204.333 67.000 C 204.556 67.000,204.667 67.111,204.667 67.333 C 204.667 67.578,204.778 67.667,205.083 67.667 C 205.389 67.667,205.500 67.756,205.500 68.000 C 205.500 68.296,205.611 68.333,206.500 68.333 C 207.370 68.333,207.500 68.374,207.500 68.649 C 207.500 69.128,207.776 69.167,211.240 69.167 L 214.453 69.167 214.766 68.750 C 214.988 68.455,215.237 68.333,215.623 68.333 C 216.056 68.333,216.167 68.265,216.167 68.000 C 216.167 67.729,216.278 67.667,216.766 67.667 C 217.224 67.667,217.385 67.589,217.452 67.333 C 217.500 67.150,217.644 67.000,217.773 67.000 C 217.902 67.000,218.093 66.813,218.197 66.583 C 218.301 66.354,218.452 66.167,218.532 66.167 C 218.612 66.167,218.745 65.998,218.828 65.792 C 218.936 65.523,218.982 65.832,218.989 66.875 L 219.000 68.333 226.167 68.333 L 233.333 68.333 233.333 46.595 C 233.333 25.148,233.329 24.854,233.007 24.752 C 232.723 24.662,232.674 24.469,232.632 23.283 C 232.587 22.010,232.558 21.913,232.208 21.863 C 231.885 21.818,231.833 21.710,231.833 21.085 C 231.833 20.202,231.705 19.833,231.399 19.833 C 231.262 19.833,231.167 19.662,231.167 19.417 C 231.167 19.111,231.078 19.000,230.833 19.000 C 230.650 19.000,230.500 18.896,230.500 18.768 C 230.500 18.463,228.874 16.833,228.570 16.833 C 228.440 16.833,228.333 16.683,228.333 16.500 C 228.333 16.278,228.222 16.167,228.000 16.167 C 227.817 16.167,227.667 16.097,227.667 16.012 C 227.667 15.695,227.127 15.333,226.655 15.333 C 226.278 15.333,226.167 15.257,226.167 15.000 C 226.167 14.716,226.056 14.667,225.417 14.667 C 224.778 14.667,224.667 14.617,224.667 14.333 C 224.667 14.034,224.556 14.000,223.583 14.000 C 222.722 14.000,222.432 13.932,222.167 13.667 C 221.848 13.348,221.611 13.333,216.833 13.333 C 211.944 13.333,211.833 13.341,211.833 13.667 M254.882 13.667 C 254.812 13.934,254.654 14.000,254.090 14.000 C 253.597 14.000,253.294 14.100,253.083 14.333 C 252.917 14.517,252.606 14.667,252.391 14.667 C 252.119 14.667,252.000 14.762,252.000 14.981 C 252.000 15.154,251.851 15.333,251.667 15.382 C 251.475 15.432,251.333 15.609,251.333 15.798 C 251.333 16.017,251.194 16.154,250.917 16.207 C 250.505 16.286,250.500 16.273,250.500 15.144 L 250.500 14.000 243.750 14.000 L 237.000 14.000 237.000 41.167 L 237.000 68.333 243.750 68.333 L 250.500 68.333 250.500 48.667 C 250.500 29.523,250.508 29.000,250.814 29.000 C 251.087 29.000,251.142 28.818,251.244 27.599 C 251.343 26.414,251.410 26.186,251.680 26.115 C 251.856 26.069,252.000 25.915,252.000 25.773 C 252.000 25.148,252.800 24.667,253.841 24.667 L 254.833 24.667 254.836 25.292 C 254.839 26.162,254.998 26.667,255.269 26.667 C 255.465 26.667,255.500 29.873,255.500 47.500 L 255.500 68.333 262.667 68.333 L 269.833 68.333 269.833 47.262 L 269.833 26.190 270.208 26.137 C 270.486 26.097,270.598 25.953,270.640 25.583 C 270.716 24.909,270.949 24.667,271.520 24.667 C 271.889 24.667,272.000 24.589,272.000 24.333 C 272.000 24.089,272.111 24.000,272.417 24.000 C 272.722 24.000,272.833 24.089,272.833 24.333 C 272.833 24.556,272.944 24.667,273.167 24.667 C 273.411 24.667,273.500 24.778,273.500 25.083 C 273.500 25.313,273.650 25.650,273.833 25.833 C 274.163 26.163,274.167 26.389,274.167 47.250 L 274.167 68.333 281.333 68.333 L 288.500 68.333 288.500 46.207 C 288.500 24.261,288.497 24.078,288.167 23.872 C 287.871 23.688,287.833 23.483,287.833 22.082 C 287.833 20.611,287.810 20.500,287.500 20.500 C 287.233 20.500,287.167 20.389,287.167 19.937 C 287.167 18.903,286.982 18.333,286.646 18.333 C 286.424 18.333,286.333 18.213,286.333 17.917 C 286.333 17.688,286.183 17.350,286.000 17.167 C 285.817 16.983,285.667 16.714,285.667 16.568 C 285.667 16.422,285.517 16.263,285.333 16.215 C 285.150 16.167,285.000 16.022,285.000 15.894 C 285.000 15.765,284.813 15.574,284.583 15.470 C 284.354 15.365,284.167 15.187,284.167 15.074 C 284.167 14.833,283.795 14.667,283.256 14.667 C 283.012 14.667,282.840 14.545,282.785 14.333 C 282.710 14.046,282.558 14.000,281.682 14.000 C 280.778 14.000,280.667 13.964,280.667 13.667 C 280.667 13.343,280.556 13.333,276.750 13.333 C 272.944 13.333,272.833 13.343,272.833 13.667 C 272.833 13.966,272.722 14.000,271.750 14.000 C 270.778 14.000,270.667 14.034,270.667 14.333 C 270.667 14.561,270.556 14.667,270.318 14.667 C 270.115 14.667,269.934 14.800,269.886 14.985 C 269.840 15.159,269.659 15.340,269.485 15.386 C 269.300 15.434,269.167 15.615,269.167 15.818 C 269.167 16.056,269.061 16.167,268.833 16.167 C 268.611 16.167,268.500 16.278,268.500 16.500 C 268.500 16.722,268.389 16.833,268.167 16.833 C 267.975 16.833,267.833 16.944,267.833 17.095 C 267.833 17.333,267.810 17.333,267.571 17.095 C 267.427 16.951,267.240 16.833,267.155 16.833 C 267.070 16.833,267.000 16.683,267.000 16.500 C 267.000 16.278,266.889 16.167,266.667 16.167 C 266.446 16.167,266.333 16.056,266.333 15.837 C 266.333 15.627,266.187 15.470,265.932 15.406 C 265.712 15.350,265.494 15.161,265.448 14.986 C 265.385 14.746,265.216 14.667,264.766 14.667 C 264.278 14.667,264.167 14.605,264.167 14.333 C 264.167 14.051,264.056 14.000,263.436 14.000 C 262.846 14.000,262.689 13.936,262.618 13.667 C 262.534 13.346,262.391 13.333,258.750 13.333 C 255.109 13.333,254.966 13.346,254.882 13.667 M346.500 13.667 C 346.324 13.910,346.069 14.000,345.548 14.000 C 345.017 14.000,344.783 14.085,344.628 14.333 C 344.513 14.517,344.297 14.667,344.146 14.667 C 343.995 14.667,343.832 14.822,343.782 15.012 C 343.732 15.203,343.536 15.399,343.346 15.448 C 343.156 15.498,343.000 15.671,343.000 15.833 C 343.000 15.995,342.850 16.167,342.667 16.215 C 342.357 16.296,342.333 16.220,342.333 15.151 L 342.333 14.000 335.167 14.000 L 328.000 14.000 328.000 41.167 L 328.000 68.333 335.167 68.333 L 342.333 68.333 342.333 47.620 C 342.333 27.114,342.337 26.905,342.667 26.622 C 342.863 26.454,343.000 26.130,343.000 25.835 C 343.000 25.444,343.074 25.333,343.333 25.333 C 343.556 25.333,343.667 25.222,343.667 25.000 C 343.667 24.701,343.778 24.667,344.750 24.667 C 345.730 24.667,345.833 24.699,345.833 25.008 C 345.833 25.195,346.021 25.536,346.250 25.765 L 346.667 26.182 346.667 47.259 L 346.667 68.337 353.792 68.293 L 360.917 68.250 360.966 46.333 C 361.017 23.160,361.007 22.667,360.488 22.667 C 360.196 22.667,360.167 22.538,360.167 21.234 C 360.167 19.942,360.134 19.794,359.833 19.715 C 359.572 19.647,359.500 19.488,359.500 18.981 C 359.500 18.451,359.441 18.333,359.176 18.333 C 358.915 18.333,358.843 18.198,358.801 17.625 C 358.759 17.036,358.687 16.908,358.375 16.863 C 358.134 16.829,358.000 16.695,358.000 16.488 C 358.000 16.278,357.885 16.167,357.667 16.167 C 357.439 16.167,357.333 16.056,357.333 15.818 C 357.333 15.615,357.200 15.434,357.015 15.386 C 356.841 15.340,356.660 15.159,356.614 14.985 C 356.566 14.800,356.385 14.667,356.182 14.667 C 355.990 14.667,355.683 14.517,355.500 14.333 C 355.265 14.099,354.944 14.000,354.417 14.000 C 353.778 14.000,353.667 13.951,353.667 13.667 C 353.667 13.344,353.556 13.333,350.203 13.333 C 346.931 13.333,346.727 13.352,346.500 13.667 M375.667 13.667 C 375.402 13.932,375.111 14.000,374.250 14.000 C 373.278 14.000,373.167 14.034,373.167 14.333 C 373.167 14.616,373.056 14.667,372.442 14.667 C 371.937 14.667,371.630 14.764,371.425 14.991 C 371.264 15.169,370.971 15.338,370.774 15.366 C 370.551 15.398,370.397 15.557,370.363 15.792 C 370.318 16.110,370.208 16.167,369.639 16.167 C 369.109 16.167,368.951 16.236,368.882 16.500 C 368.833 16.684,368.654 16.833,368.481 16.833 C 368.284 16.833,368.167 16.951,368.167 17.147 C 368.167 17.325,368.016 17.500,367.821 17.552 C 367.631 17.601,367.436 17.791,367.389 17.972 C 367.341 18.154,367.159 18.340,366.985 18.386 C 366.746 18.448,366.667 18.619,366.667 19.068 C 366.667 19.556,366.605 19.667,366.333 19.667 C 366.093 19.667,366.000 19.778,366.000 20.064 C 366.000 20.310,365.883 20.492,365.692 20.542 C 365.389 20.621,365.167 21.277,365.167 22.093 C 365.167 22.331,365.040 22.518,364.833 22.583 C 364.528 22.680,364.500 22.836,364.500 24.408 C 364.500 25.988,364.473 26.135,364.167 26.215 C 363.653 26.349,363.640 53.799,364.153 54.120 C 364.437 54.297,364.479 54.565,364.528 56.507 C 364.575 58.357,364.628 58.727,364.875 58.907 C 365.041 59.028,365.167 59.336,365.167 59.623 C 365.167 60.599,365.358 61.167,365.688 61.167 C 365.947 61.167,366.000 61.294,366.000 61.917 C 366.000 62.541,366.053 62.667,366.315 62.667 C 366.542 62.667,366.660 62.827,366.738 63.245 C 366.798 63.564,366.948 63.883,367.071 63.954 C 367.195 64.025,367.324 64.233,367.358 64.417 C 367.394 64.610,367.577 64.772,367.793 64.803 C 368.033 64.837,368.167 64.972,368.167 65.178 C 368.167 65.389,368.282 65.500,368.500 65.500 C 368.722 65.500,368.833 65.611,368.833 65.833 C 368.833 66.052,368.944 66.167,369.155 66.167 C 369.333 66.167,369.525 66.317,369.583 66.500 C 369.656 66.730,369.892 66.865,370.345 66.938 C 370.837 67.016,371.000 67.120,371.000 67.355 C 371.000 67.613,371.128 67.667,371.750 67.667 C 372.389 67.667,372.500 67.716,372.500 68.000 C 372.500 68.299,372.611 68.333,373.564 68.333 C 374.459 68.333,374.641 68.382,374.708 68.641 C 374.830 69.108,375.461 69.167,380.333 69.167 C 385.205 69.167,385.836 69.108,385.958 68.641 C 386.026 68.384,386.207 68.333,387.063 68.333 C 387.906 68.333,388.123 68.275,388.295 68.000 C 388.437 67.773,388.683 67.667,389.071 67.667 C 389.804 67.667,390.167 67.523,390.167 67.232 C 390.167 67.096,390.338 67.000,390.583 67.000 C 390.917 67.000,391.000 66.917,391.000 66.583 C 391.000 66.239,391.080 66.167,391.465 66.167 C 391.955 66.167,393.167 64.942,393.167 64.446 C 393.167 64.314,393.317 64.166,393.500 64.118 C 393.695 64.067,393.833 63.891,393.833 63.694 C 393.833 63.471,393.960 63.338,394.208 63.303 C 394.507 63.261,394.594 63.127,394.634 62.642 C 394.670 62.205,394.776 62.010,395.009 61.949 C 395.286 61.877,395.333 61.715,395.333 60.849 C 395.333 59.944,395.370 59.833,395.667 59.833 C 395.974 59.833,396.000 59.722,396.000 58.401 C 396.000 57.106,396.032 56.960,396.335 56.881 C 396.827 56.752,396.848 56.510,396.797 51.500 L 396.750 46.917 389.785 46.917 C 383.776 46.917,382.799 46.951,382.663 47.167 C 382.573 47.309,382.504 49.482,382.503 52.208 C 382.500 56.959,382.497 57.000,382.151 57.000 C 381.942 57.000,381.767 57.134,381.715 57.333 C 381.584 57.834,379.583 57.834,379.452 57.333 C 379.404 57.150,379.245 57.000,379.099 57.000 C 378.899 57.000,378.833 56.831,378.833 56.318 C 378.833 55.776,378.765 55.618,378.500 55.548 C 378.174 55.463,378.167 55.321,378.167 49.397 L 378.167 43.333 387.413 43.333 L 396.660 43.333 396.753 42.958 C 396.803 42.752,396.824 38.358,396.797 33.194 L 396.750 23.804 396.375 23.500 C 396.060 23.245,396.000 23.033,396.000 22.182 C 396.000 21.278,395.964 21.167,395.667 21.167 C 395.388 21.167,395.333 21.056,395.333 20.484 C 395.333 19.956,395.262 19.784,395.019 19.720 C 394.805 19.664,394.671 19.430,394.600 18.986 C 394.520 18.481,394.421 18.333,394.165 18.333 C 393.940 18.333,393.833 18.222,393.833 17.984 C 393.833 17.776,393.699 17.600,393.500 17.548 C 393.316 17.500,393.167 17.321,393.167 17.147 C 393.167 16.944,393.049 16.833,392.833 16.833 C 392.611 16.833,392.500 16.722,392.500 16.500 C 392.500 16.260,392.389 16.167,392.103 16.167 C 391.850 16.167,391.675 16.049,391.621 15.844 C 391.566 15.634,391.333 15.484,390.950 15.412 C 390.572 15.341,390.335 15.189,390.281 14.984 C 390.216 14.737,390.046 14.667,389.516 14.667 C 389.044 14.667,388.833 14.595,388.833 14.434 C 388.833 14.098,388.453 14.000,387.153 14.000 C 386.111 14.000,386.000 13.968,386.000 13.667 C 386.000 13.341,385.889 13.333,381.000 13.333 C 376.222 13.333,375.985 13.348,375.667 13.667 M310.000 41.167 L 310.000 68.333 317.167 68.333 L 324.333 68.333 324.333 41.167 L 324.333 14.000 317.167 14.000 L 310.000 14.000 310.000 41.167 M182.500 24.333 C 182.500 24.556,182.611 24.667,182.833 24.667 C 183.103 24.667,183.167 24.778,183.167 25.249 C 183.167 25.650,183.270 25.895,183.500 26.039 C 183.820 26.239,183.833 26.427,183.833 30.873 L 183.833 35.500 181.667 35.500 L 179.500 35.500 179.500 30.503 L 179.500 25.506 179.917 25.402 C 180.177 25.336,180.333 25.179,180.333 24.982 C 180.333 24.778,180.451 24.667,180.667 24.667 C 180.889 24.667,181.000 24.556,181.000 24.333 C 181.000 24.049,181.111 24.000,181.750 24.000 C 182.389 24.000,182.500 24.049,182.500 24.333 M381.000 24.266 C 381.000 24.412,381.148 24.570,381.328 24.617 C 381.508 24.664,381.701 24.845,381.756 25.018 C 381.811 25.191,382.001 25.333,382.178 25.333 C 382.489 25.333,382.500 25.504,382.500 30.417 L 382.500 35.500 380.333 35.500 L 378.167 35.500 378.167 30.853 C 378.167 26.346,378.177 26.203,378.500 26.118 C 378.765 26.049,378.833 25.891,378.833 25.349 C 378.833 24.677,378.842 24.667,379.432 24.667 C 379.891 24.667,380.052 24.589,380.118 24.333 C 380.226 23.920,381.000 23.861,381.000 24.266 M219.000 48.167 C 219.000 55.389,218.995 55.500,218.667 55.500 C 218.383 55.500,218.333 55.611,218.333 56.250 C 218.333 56.889,218.284 57.000,218.000 57.000 C 217.778 57.000,217.667 57.111,217.667 57.333 C 217.667 57.627,217.556 57.667,216.738 57.667 C 215.693 57.667,215.333 57.431,215.333 56.746 C 215.333 56.442,215.228 56.275,215.000 56.215 C 214.675 56.130,214.667 55.988,214.667 50.397 C 214.667 44.778,214.673 44.667,215.000 44.667 C 215.278 44.667,215.333 44.556,215.333 44.000 C 215.333 43.435,215.386 43.333,215.682 43.333 C 215.889 43.333,216.066 43.200,216.117 43.006 C 216.164 42.825,216.345 42.633,216.518 42.578 C 216.691 42.523,216.833 42.333,216.833 42.155 C 216.833 41.944,216.948 41.833,217.167 41.833 C 217.389 41.833,217.500 41.722,217.500 41.500 C 217.500 41.222,217.611 41.167,218.167 41.167 C 218.533 41.167,218.833 41.092,218.833 41.000 C 218.833 40.908,218.871 40.833,218.917 40.833 C 218.963 40.833,219.000 44.133,219.000 48.167 " stroke="none" fill="#fcfcfc" fill-rule="evenodd"></path><path id="path1" d="M8.037 7.363 C 7.753 7.647,7.749 13.183,8.033 13.467 C 8.340 13.773,13.894 13.746,14.150 13.437 C 14.282 13.278,14.327 12.283,14.296 10.228 L 14.250 7.250 11.245 7.205 C 9.049 7.172,8.186 7.214,8.037 7.363 M18.779 7.277 C 18.505 7.551,18.655 34.960,18.930 35.066 C 19.328 35.218,50.385 35.182,50.626 35.029 C 50.792 34.923,50.826 32.021,50.793 21.073 L 50.750 7.250 34.820 7.208 C 26.059 7.184,18.840 7.215,18.779 7.277 M55.281 7.274 C 55.069 7.486,55.149 13.249,55.367 13.467 C 55.673 13.773,61.227 13.746,61.484 13.437 C 61.615 13.278,61.660 12.283,61.629 10.228 L 61.583 7.250 58.490 7.205 C 56.788 7.180,55.344 7.211,55.281 7.274 M8.033 18.033 C 7.802 18.264,7.748 23.774,7.973 24.129 C 8.076 24.291,8.833 24.330,11.179 24.296 L 14.250 24.250 14.296 21.272 C 14.327 19.217,14.282 18.222,14.150 18.063 C 13.894 17.754,8.340 17.727,8.033 18.033 M55.350 18.063 C 55.218 18.222,55.173 19.217,55.204 21.272 L 55.250 24.250 58.417 24.250 L 61.583 24.250 61.629 21.272 C 61.660 19.217,61.615 18.222,61.484 18.063 C 61.206 17.729,55.628 17.729,55.350 18.063 M7.936 28.927 C 7.711 29.514,7.823 35.451,8.063 35.650 C 8.222 35.782,9.217 35.827,11.272 35.796 L 14.250 35.750 14.250 32.250 L 14.250 28.750 11.144 28.705 C 8.421 28.665,8.026 28.692,7.936 28.927 M55.281 28.774 C 55.068 28.987,55.148 35.415,55.367 35.633 C 55.673 35.939,61.227 35.912,61.483 35.604 C 61.616 35.444,61.660 34.364,61.629 32.062 L 61.583 28.750 58.490 28.705 C 56.788 28.680,55.344 28.711,55.281 28.774 M7.909 40.377 C 7.863 40.497,7.846 41.905,7.871 43.506 L 7.917 46.417 11.083 46.417 L 14.250 46.417 14.250 43.333 L 14.250 40.250 11.121 40.205 C 8.666 40.169,7.974 40.206,7.909 40.377 M18.743 40.375 C 18.700 40.490,18.683 46.733,18.707 54.250 L 18.750 67.917 34.750 67.917 L 50.750 67.917 50.793 54.042 L 50.835 40.167 34.829 40.167 C 22.178 40.167,18.806 40.210,18.743 40.375 M55.242 40.377 C 55.196 40.497,55.179 41.905,55.204 43.506 L 55.250 46.417 58.417 46.417 L 61.583 46.417 61.583 43.333 L 61.583 40.250 58.455 40.205 C 55.999 40.169,55.308 40.206,55.242 40.377 M8.037 51.030 C 7.753 51.314,7.749 56.849,8.033 57.133 C 8.264 57.364,13.774 57.419,14.129 57.194 C 14.291 57.091,14.330 56.333,14.296 53.988 L 14.250 50.917 11.245 50.871 C 9.049 50.838,8.186 50.881,8.037 51.030 M55.367 51.033 C 55.086 51.314,55.086 56.852,55.367 57.133 C 55.648 57.414,61.186 57.414,61.467 57.133 C 61.678 56.922,61.765 51.616,61.566 51.097 C 61.435 50.756,55.703 50.697,55.367 51.033 M7.948 61.774 C 7.786 61.936,7.810 67.538,7.973 67.796 C 8.076 67.958,8.833 67.997,11.179 67.962 L 14.250 67.917 14.250 64.833 L 14.250 61.750 11.156 61.705 C 9.455 61.680,8.011 61.711,7.948 61.774 M55.242 61.877 C 55.196 61.997,55.179 63.405,55.204 65.006 L 55.250 67.917 58.417 67.917 L 61.583 67.917 61.583 64.833 L 61.583 61.750 58.455 61.705 C 55.999 61.669,55.308 61.706,55.242 61.877 " stroke="none" fill="#345c04" fill-rule="evenodd"></path><path id="path2" d="M3.278 2.611 C 3.217 2.672,3.167 18.385,3.167 37.528 L 3.167 72.333 34.750 72.333 L 66.333 72.333 66.333 37.417 L 66.333 2.500 34.861 2.500 C 17.551 2.500,3.339 2.550,3.278 2.611 M14.296 10.228 C 14.353 13.986,14.650 13.667,11.096 13.667 C 7.538 13.667,7.833 13.961,7.833 10.417 C 7.833 6.848,7.514 7.148,11.245 7.205 L 14.250 7.250 14.296 10.228 M50.793 21.073 C 50.826 32.021,50.792 34.923,50.626 35.029 C 50.385 35.182,19.328 35.218,18.930 35.066 C 18.655 34.960,18.505 7.551,18.779 7.277 C 18.840 7.215,26.059 7.184,34.820 7.208 L 50.750 7.250 50.793 21.073 M61.629 10.228 C 61.660 12.283,61.615 13.278,61.484 13.437 C 61.227 13.746,55.673 13.773,55.367 13.467 C 55.149 13.249,55.069 7.486,55.281 7.274 C 55.344 7.211,56.788 7.180,58.490 7.205 L 61.583 7.250 61.629 10.228 M14.150 18.063 C 14.282 18.222,14.327 19.217,14.296 21.272 L 14.250 24.250 11.179 24.296 C 8.833 24.330,8.076 24.291,7.973 24.129 C 7.748 23.774,7.802 18.264,8.033 18.033 C 8.340 17.727,13.894 17.754,14.150 18.063 M61.484 18.063 C 61.615 18.222,61.660 19.217,61.629 21.272 L 61.583 24.250 58.417 24.250 L 55.250 24.250 55.204 21.272 C 55.173 19.217,55.218 18.222,55.350 18.063 C 55.628 17.729,61.206 17.729,61.484 18.063 M14.250 32.250 L 14.250 35.750 11.272 35.796 C 7.498 35.853,7.833 36.192,7.833 32.327 C 7.833 28.219,7.439 28.651,11.144 28.705 L 14.250 28.750 14.250 32.250 M61.629 32.062 C 61.660 34.364,61.616 35.444,61.483 35.604 C 61.227 35.912,55.673 35.939,55.367 35.633 C 55.148 35.415,55.068 28.987,55.281 28.774 C 55.344 28.711,56.788 28.680,58.490 28.705 L 61.583 28.750 61.629 32.062 M14.250 43.333 L 14.250 46.417 11.083 46.417 L 7.917 46.417 7.871 43.506 C 7.846 41.905,7.863 40.497,7.909 40.377 C 7.974 40.206,8.666 40.169,11.121 40.205 L 14.250 40.250 14.250 43.333 M50.793 54.042 L 50.750 67.917 34.750 67.917 L 18.750 67.917 18.707 54.250 C 18.683 46.733,18.700 40.490,18.743 40.375 C 18.806 40.210,22.178 40.167,34.829 40.167 L 50.835 40.167 50.793 54.042 M61.583 43.333 L 61.583 46.417 58.417 46.417 L 55.250 46.417 55.204 43.506 C 55.179 41.905,55.196 40.497,55.242 40.377 C 55.308 40.206,55.999 40.169,58.455 40.205 L 61.583 40.250 61.583 43.333 M14.296 53.988 C 14.350 57.673,14.683 57.328,11.075 57.331 C 7.541 57.334,7.833 57.627,7.833 54.083 C 7.833 50.515,7.514 50.815,11.245 50.871 L 14.250 50.917 14.296 53.988 M61.566 51.097 C 61.765 51.616,61.678 56.922,61.467 57.133 C 61.186 57.414,55.648 57.414,55.367 57.133 C 55.086 56.852,55.086 51.314,55.367 51.033 C 55.703 50.697,61.435 50.756,61.566 51.097 M14.250 64.833 L 14.250 67.917 11.179 67.962 C 8.833 67.997,8.076 67.958,7.973 67.796 C 7.810 67.538,7.786 61.936,7.948 61.774 C 8.011 61.711,9.455 61.680,11.156 61.705 L 14.250 61.750 14.250 64.833 M61.583 64.833 L 61.583 67.917 58.417 67.917 L 55.250 67.917 55.204 65.006 C 55.179 63.405,55.196 61.997,55.242 61.877 C 55.308 61.706,55.999 61.669,58.455 61.705 L 61.583 61.750 61.583 64.833 " stroke="none" fill="#9ca48c" fill-rule="evenodd"></path><path id="path3" d="" stroke="none" fill="#d0100bc" fill-rule="evenodd"></path></g></svg>