<svg xmlns="http://www.w3.org/2000/svg" xmlns:xlink="http://www.w3.org/1999/xlink" version="1.1" viewBox="471 0 558 101"><svg xml:space="preserve" width="1500" height="101" data-version="2" data-id="lg_JBjSO2jxVGuTZLqrCe" viewBox="0 0 558 101" x="0" y="0"><rect width="100%" height="100%" fill="transparent"/><path fill="#fff" d="M139.53 95.687q-12 0-17.31-5.98-5.3-5.97-5.3-19.02v-8.57h17.33v10.96q0 3.04.92 4.75.92 1.72 3.22 1.72 2.39 0 3.31-1.39.92-1.4.92-4.58 0-4.04-.8-6.75-.79-2.72-2.76-5.18-1.97-2.47-5.46-5.76l-7.86-7.47q-8.82-8.31-8.82-19.02 0-11.21 5.2-17.08 5.21-5.88 15.07-5.88 12.05 0 17.11 6.42 5.05 6.43 5.05 19.53h-17.83v-6.03q0-1.79-1.02-2.79-1.02-.99-2.76-.99-2.09 0-3.06 1.17-.98 1.17-.98 3.01 0 1.84 1 3.98 1 2.15 3.93 4.93l10.12 9.72q3.03 2.88 5.57 6.1 2.54 3.21 4.09 7.47 1.54 4.26 1.54 10.38 0 12.35-4.56 19.35-4.55 7-15.86 7m41.29 0q-7.22 0-9.74-3.06-2.51-3.07-2.51-9.39v-46.57h-5.03v-13.6h5.03V7.237h17.33v15.83h5.03v13.6h-5.03v42.38q0 1.85.6 2.59.59.75 2.29.75 1.19 0 2.14-.2v12.15q-.6.2-3.74.78-3.13.57-6.37.57m33.92-.8h-18.13v-74.71h18.13v8.32q1.29-4.33 4.58-6.77 3.29-2.44 8.27-2.44v14.89q-2.2 0-5.23.47-3.04.48-5.33 1.3-2.29.82-2.29 1.82zm38.15.8q-7.97 0-12.7-2.99-4.73-2.99-6.78-8.62-2.04-5.62-2.04-13.54v-30.03q0-10.41 5.98-15.77 5.97-5.35 16.43-5.35 21.52 0 21.52 21.12v5.42q0 9.87-.2 13.25h-25.9v14.45q0 1.99.25 3.9.25 1.92 1.12 3.17.87 1.24 2.81 1.24 2.79 0 3.49-2.41.7-2.42.7-6.3v-7.18h17.73v4.24q0 8.37-2.07 14.02-2.06 5.65-6.97 8.51-4.91 2.87-13.37 2.87m-3.79-55.43v10.06h8.47v-10.06q0-4.04-1-5.81-.99-1.76-2.99-1.76-2.14 0-3.31 1.69t-1.17 5.88m46.27 55.43q-6.23 0-9.49-2.89t-4.46-7.92q-1.19-5.03-1.19-11.4 0-6.83 1.34-11.19 1.35-4.35 4.61-7.14 3.26-2.79 8.99-4.73l11.06-3.79v-7.67q0-6.03-3.94-6.03-3.58 0-3.58 4.89v4.48h-17.33q-.05-.4-.05-1.02v-1.42q0-11.16 5.25-15.82 5.25-4.65 16.66-4.65 5.98 0 10.71 2.11 4.73 2.12 7.49 6.26 2.77 4.13 2.77 10.21v56.92h-17.73v-8.86q-1.3 4.68-4.29 7.17-2.98 2.49-6.82 2.49m7.02-13.85q2.19 0 2.99-1.84.8-1.84.8-3.98v-20.82q-3.69 1.49-5.73 3.76-2.04 2.26-2.04 6.65v9.61q0 6.62 3.98 6.62m46.52 13.05h-17.83v-74.71h17.43v8.67q1.2-4.58 4.09-7.02 2.88-2.44 8.46-2.44 4.48 0 7.65 2.06 3.16 2.07 4.46 5.46 2.04-3.69 4.8-5.6 2.77-1.92 7.9-1.92 6.22 0 9.58 2.66 3.36 2.67 4.68 7.37 1.32 4.71 1.32 10.89v54.58h-17.78v-54.88q0-7.22-3.68-7.22-1.94 0-2.99 1.32-1.05 1.32-1.44 3.26-.4 1.94-.4 3.88v53.64h-17.78v-54.88q0-2.34-.58-4.68-.57-2.35-2.91-2.35-1.99 0-3.09 1.45-1.09 1.44-1.49 3.56-.4 2.12-.4 4.16zm77.65 0h-18.13V7.237h18.13zm24.9-79.29h-17.83V.757h17.83zm0 79.29h-17.83v-74.71h17.83zm24.9 0h-17.83v-74.71h17.83v9.52q1-4.29 3.71-7.3 2.72-3.01 7.55-3.01 7.77 0 11.28 4.78t3.51 13.1v57.62h-17.58v-55.78q0-2.19-.9-4.06-.9-1.87-3.09-1.87-2.04 0-3.01 1.42-.97 1.42-1.22 3.54t-.25 4.21zm53.94.8q-7.97 0-12.7-2.99-4.73-2.99-6.77-8.62-2.05-5.62-2.05-13.54v-30.03q0-10.41 5.98-15.77 5.98-5.35 16.44-5.35 21.51 0 21.51 21.12v5.42q0 9.87-.2 13.25h-25.9v14.45q0 1.99.25 3.9.25 1.92 1.12 3.17.87 1.24 2.82 1.24 2.79 0 3.48-2.41.7-2.42.7-6.3v-7.18h17.73v4.24q0 8.37-2.07 14.02-2.06 5.65-6.97 8.51-4.9 2.87-13.37 2.87m-3.79-55.43v10.06h8.47v-10.06q0-4.04-1-5.81-.99-1.76-2.98-1.76-2.15 0-3.32 1.69t-1.17 5.88"/><path fill="#99a28e" d="M5.289 4.715v95.53H91.78V4.715zm5.12 15.151V9.836h10.03v10.03zm0 15.065v-10.03h10.03v10.03zm0 15.075v-10.04h10.03v10.03zm0 15.065V55.04h10.03v10.03zm0 15.065v-10.03h10.03v10.03zm0 15.075V85.18h10.03v10.03zm14.989-45.282V9.826H71.51V49.91zm0 45.196V55.04H71.51v40.085zM76.62 19.866V9.836h10.03v10.03zm0 15.065v-10.03h10.03v10.03zm0 15.075v-10.04h10.03v10.03zm0 15.065V55.04h10.03v10.03zm0 15.065v-10.03h10.03v10.03zm0 15.075V85.18h10.03v10.03z"/></svg></svg>